<?xml version="1.0" encoding="UTF-8"?>
<svg width="67px" height="40px" viewBox="0 0 67 40" version="1.1" xmlns="http://www.w3.org/2000/svg" xmlns:xlink="http://www.w3.org/1999/xlink">
    <!-- Generator: Sketch 52.2 (67145) - http://www.bohemiancoding.com/sketch -->
    <title>形状结合</title>
    <desc>Created with Sketch.</desc>
    <g id="页面-1" stroke="none" stroke-width="1" fill="none" fill-rule="evenodd">
        <g id="Apple-TV标准版" transform="translate(-15.000000, -660.000000)" fill="#0273F4">
            <path d="M41.0207513,684 L36.4019492,676 L77.0000254,676 L77.0000254,660 L82.0000254,665 L82.0000254,700 L77.0000254,700 L77.0000254,684 L41.0207513,684 Z M38.7113503,684 L35.0207513,684 L30.4019492,676 L34.0925481,676 L38.7113503,684 Z M32.7113503,684 L29.0207513,684 L24.4019492,676 L28.0925481,676 L32.7113503,684 Z M26.7113503,684 L23.0207513,684 L18.4019492,676 L22.0925481,676 L26.7113503,684 Z M20.7113503,684 L17.0207513,684 L15.0000254,680.5 L15.0000254,676 L16.0925481,676 L20.7113503,684 Z" id="形状结合" transform="translate(48.500013, 680.000000) rotate(-180.000000) translate(-48.500013, -680.000000) "></path>
        </g>
    </g>
</svg>