<?xml version="1.0" encoding="UTF-8"?>
<svg width="67px" height="40px" viewBox="0 0 67 40" version="1.1" xmlns="http://www.w3.org/2000/svg" xmlns:xlink="http://www.w3.org/1999/xlink">
    <!-- Generator: Sketch 52.2 (67145) - http://www.bohemiancoding.com/sketch -->
    <title>形状结合</title>
    <desc>Created with Sketch.</desc>
    <g id="页面-1" stroke="none" stroke-width="1" fill="none" fill-rule="evenodd">
        <g id="Apple-TV标准版" transform="translate(-483.000000, -430.000000)" fill="#0273F4">
            <path d="M509.020726,454 L504.401924,446 L545,446 L545,430 L550,435 L550,470 L545,470 L545,454 L509.020726,454 Z M506.711325,454 L503.020726,454 L498.401924,446 L502.092523,446 L506.711325,454 Z M500.711325,454 L497.020726,454 L492.401924,446 L496.092523,446 L500.711325,454 Z M494.711325,454 L491.020726,454 L486.401924,446 L490.092523,446 L494.711325,454 Z M488.711325,454 L485.020726,454 L483,450.5 L483,446 L484.092523,446 L488.711325,454 Z" id="形状结合"></path>
        </g>
    </g>
</svg>